<svg xmlns="http://www.w3.org/2000/svg" viewBox="0 0 64 64" role="img" aria-label="IgnisCore">
  <defs>
    <linearGradient id="flame" x1="32" y1="8" x2="32" y2="56" gradientUnits="userSpaceOnUse">
      <stop offset="0%" stop-color="#fbbf24"/>
      <stop offset="50%" stop-color="#f97316"/>
      <stop offset="100%" stop-color="#ea580c"/>
    </linearGradient>
  </defs>
  <rect width="64" height="64" rx="14" fill="#1a0f0a"/>
  <path fill="url(#flame)" d="M32 12c-2 8-10 10-10 20 0 7 4.5 12 10 12s10-5 10-12c0-10-8-12-10-20zm0 36c-3.5 0-6-2.8-6-6.5 0-4 2.5-6 4.5-9.5 1 3.5 3 5.5 5.5 5.5 1.8 0 3.2-1 4-2.5 1.5 2.5 2.5 4.2 2.5 6.5 0 3.7-2.5 6.5-6 6.5z"/>
</svg>
